<svg xmlns="http://www.w3.org/2000/svg" width="1600" height="1260" viewBox="0 0 1600 1260">
<rect width="1600" height="1260" fill="#f6f4ef"/>
<text x="60" y="63" font-family="Arial, sans-serif" font-size="19" font-weight="700" fill="#127567">COMMITMENT DESK</text>
<text x="60" y="121" font-family="Arial, sans-serif" font-size="46" font-weight="700" fill="#182d39">Evidence before the next follow-up.</text>
<text x="60" y="167" font-family="Arial, sans-serif" font-size="25" font-weight="400" fill="#4a606b">Strands interprets the updates. Application rules reconcile them. A person approves the handoff.</text>
<rect x="490" y="198" width="1040" height="780" rx="24" fill="#eaf0f5" stroke="#d3dfe8" stroke-width="2"/>
<text x="520" y="227" font-family="Arial, sans-serif" font-size="18" font-weight="700" fill="#315a84">SERVER / WORKER  ·  model credentials and judge secret stay here</text>
<polyline points="420,340 540,340" fill="none" stroke="#315a84" stroke-width="3.5" stroke-linejoin="round"/>
<polygon points="540.0,340.0 527.0,345.5 527.0,334.5" fill="#315a84"/>
<polyline points="990,308 1080,308" fill="none" stroke="#315a84" stroke-width="3.5" stroke-linejoin="round"/>
<polygon points="1080.0,308.0 1067.0,313.5 1067.0,302.5" fill="#315a84"/>
<polyline points="1080,367 990,367" fill="none" stroke="#315a84" stroke-width="3.5" stroke-linejoin="round"/>
<polygon points="990.0,367.0 1003.0,361.5 1003.0,372.5" fill="#315a84"/>
<polyline points="765,425 765,505" fill="none" stroke="#315a84" stroke-width="3.5" stroke-linejoin="round"/>
<polygon points="765.0,505.0 759.5,492.0 770.5,492.0" fill="#315a84"/>
<text x="790" y="469" font-family="Arial, sans-serif" font-size="18" font-weight="400" fill="#315a84">Allowed live review</text>
<polyline points="990,558 1080,558" fill="none" stroke="#315a84" stroke-width="3.5" stroke-linejoin="round"/>
<polygon points="1080.0,558.0 1067.0,563.5 1067.0,552.5" fill="#315a84"/>
<polyline points="1080,612 990,612" fill="none" stroke="#315a84" stroke-width="3.5" stroke-linejoin="round"/>
<polygon points="990.0,612.0 1003.0,606.5 1003.0,617.5" fill="#315a84"/>
<polyline points="765,675 765,710 1280,710 1280,755" fill="none" stroke="#315a84" stroke-width="3.5" stroke-linejoin="round"/>
<polygon points="1280.0,755.0 1274.5,742.0 1285.5,742.0" fill="#315a84"/>
<polyline points="1080,881 990,881" fill="none" stroke="#315a84" stroke-width="3.5" stroke-linejoin="round"/>
<polygon points="990.0,881.0 1003.0,875.5 1003.0,886.5" fill="#315a84"/>
<polyline points="1080,809 1030,809 1030,647 990,647" fill="none" stroke="#315a84" stroke-width="3.5" stroke-linejoin="round" stroke-dasharray="7 7"/>
<polygon points="990.0,647.0 1003.0,641.5 1003.0,652.5" fill="#315a84"/>
<polyline points="765,925 765,962 370,962 370,1020" fill="none" stroke="#315a84" stroke-width="3.5" stroke-linejoin="round"/>
<polygon points="370.0,1020.0 364.5,1007.0 375.5,1007.0" fill="#315a84"/>
<polyline points="680,1105 890,1105" fill="none" stroke="#127567" stroke-width="3.5" stroke-linejoin="round"/>
<polygon points="890.0,1105.0 877.0,1110.5 877.0,1099.5" fill="#127567"/>
<rect x="60" y="255" width="360" height="170" rx="20" fill="#ffffff" stroke="#d6dddc" stroke-width="2"/>
<text x="84" y="292" font-family="Arial, sans-serif" font-size="18" font-weight="700" fill="#127567">01 / INPUT</text>
<text x="84" y="328" font-family="Arial, sans-serif" font-size="27" font-weight="700" fill="#182d39">Dated project updates</text>
<text x="84" y="364" font-family="Arial, sans-serif" font-size="22" font-weight="400" fill="#4a606b">Source ID, date and body</text>
<text x="84" y="394" font-family="Arial, sans-serif" font-size="22" font-weight="400" fill="#4a606b">Review date chosen by user</text>
<rect x="540" y="255" width="450" height="170" rx="20" fill="#e9f2ef" stroke="#d6dddc" stroke-width="2"/>
<text x="564" y="292" font-family="Arial, sans-serif" font-size="18" font-weight="700" fill="#127567">02 / JUDGE ACCESS</text>
<text x="564" y="328" font-family="Arial, sans-serif" font-size="27" font-weight="700" fill="#182d39">Admission gate</text>
<text x="564" y="364" font-family="Arial, sans-serif" font-size="22" font-weight="400" fill="#4a606b">Server-only secret · expiry</text>
<text x="564" y="394" font-family="Arial, sans-serif" font-size="22" font-weight="400" fill="#4a606b">Shared allowance checked first</text>
<rect x="1080" y="255" width="400" height="170" rx="20" fill="#ffffff" stroke="#d6dddc" stroke-width="2"/>
<text x="1104" y="292" font-family="Arial, sans-serif" font-size="18" font-weight="700" fill="#127567">USAGE STATE</text>
<text x="1104" y="328" font-family="Arial, sans-serif" font-size="27" font-weight="700" fill="#182d39">Cloudflare D1</text>
<text x="1104" y="364" font-family="Arial, sans-serif" font-size="22" font-weight="400" fill="#4a606b">Atomic counters + active leases</text>
<text x="1104" y="394" font-family="Arial, sans-serif" font-size="22" font-weight="400" fill="#4a606b">No project notes stored</text>
<rect x="540" y="505" width="450" height="170" rx="20" fill="#ffffff" stroke="#d6dddc" stroke-width="2"/>
<text x="564" y="542" font-family="Arial, sans-serif" font-size="18" font-weight="700" fill="#127567">03 / AGENT</text>
<text x="564" y="578" font-family="Arial, sans-serif" font-size="27" font-weight="700" fill="#182d39">Strands agent</text>
<text x="564" y="614" font-family="Arial, sans-serif" font-size="22" font-weight="400" fill="#4a606b">read_updates → structured output</text>
<text x="564" y="644" font-family="Arial, sans-serif" font-size="22" font-weight="400" fill="#4a606b">Real tool callbacks → activity view</text>
<rect x="1080" y="505" width="400" height="170" rx="20" fill="#ffffff" stroke="#d6dddc" stroke-width="2"/>
<text x="1104" y="542" font-family="Arial, sans-serif" font-size="18" font-weight="700" fill="#127567">MODEL PROVIDER</text>
<text x="1104" y="578" font-family="Arial, sans-serif" font-size="27" font-weight="700" fill="#182d39">Amazon Bedrock</text>
<text x="1104" y="614" font-family="Arial, sans-serif" font-size="22" font-weight="400" fill="#4a606b">Nova Lite 1.0 · us-east-2</text>
<text x="1104" y="644" font-family="Arial, sans-serif" font-size="22" font-weight="400" fill="#4a606b">Scoped identity · fetch transport</text>
<rect x="1080" y="755" width="400" height="170" rx="20" fill="#ffffff" stroke="#d6dddc" stroke-width="2"/>
<text x="1104" y="792" font-family="Arial, sans-serif" font-size="18" font-weight="700" fill="#127567">04 / VALIDATION</text>
<text x="1104" y="828" font-family="Arial, sans-serif" font-size="27" font-weight="700" fill="#182d39">Source-specific schema</text>
<text x="1104" y="864" font-family="Arial, sans-serif" font-size="22" font-weight="400" fill="#4a606b">Exact quotes, owners and dates</text>
<text x="1104" y="894" font-family="Arial, sans-serif" font-size="22" font-weight="400" fill="#4a606b">Bounded correction feedback</text>
<rect x="540" y="755" width="450" height="170" rx="20" fill="#ffffff" stroke="#d6dddc" stroke-width="2"/>
<text x="564" y="792" font-family="Arial, sans-serif" font-size="18" font-weight="700" fill="#127567">05 / APPLICATION RULES</text>
<text x="564" y="828" font-family="Arial, sans-serif" font-size="27" font-weight="700" fill="#182d39">Chronological reconciliation</text>
<text x="564" y="864" font-family="Arial, sans-serif" font-size="22" font-weight="400" fill="#4a606b">Completion, withdrawals, conflicts</text>
<text x="564" y="894" font-family="Arial, sans-serif" font-size="22" font-weight="400" fill="#4a606b">Overdue / blocked / unclear / next</text>
<rect x="60" y="1020" width="620" height="178" rx="20" fill="#ffffff" stroke="#d6dddc" stroke-width="2"/>
<text x="84" y="1057" font-family="Arial, sans-serif" font-size="18" font-weight="700" fill="#127567">06 / HUMAN REVIEW</text>
<text x="84" y="1093" font-family="Arial, sans-serif" font-size="27" font-weight="700" fill="#182d39">Inspect evidence and edit the draft</text>
<text x="84" y="1129" font-family="Arial, sans-serif" font-size="22" font-weight="400" fill="#4a606b">Accepted event history stays attached to the item.</text>
<text x="84" y="1159" font-family="Arial, sans-serif" font-size="22" font-weight="400" fill="#4a606b">Unknown details and conflicts remain visible.</text>
<rect x="890" y="1020" width="590" height="178" rx="20" fill="#e9f2ef" stroke="#d6dddc" stroke-width="2"/>
<text x="914" y="1057" font-family="Arial, sans-serif" font-size="18" font-weight="700" fill="#127567">07 / HANDOFF</text>
<text x="914" y="1093" font-family="Arial, sans-serif" font-size="27" font-weight="700" fill="#182d39">Approve and export Markdown</text>
<text x="914" y="1129" font-family="Arial, sans-serif" font-size="22" font-weight="400" fill="#4a606b">A local download for a person to use.</text>
<text x="914" y="1159" font-family="Arial, sans-serif" font-size="22" font-weight="400" fill="#4a606b">No email or messages are sent.</text>
<text x="60" y="1243" font-family="Arial, sans-serif" font-size="21" font-weight="400" fill="#4a606b">Exact evidence matching is a constraint, not a guarantee of semantic accuracy. The current demo uses synthetic data.</text>
</svg>